<?xml version="1.0" encoding="utf-8"?>
<!-- Accessible RareBird avatar: includes title and no aria-hidden when used as an image -->
<svg xmlns="http://www.w3.org/2000/svg" viewBox="0 0 256 256" width="256" height="256" role="img" aria-labelledby="rb-title">
  <title id="rb-title">RareBird silhouette</title>
  <g fill="#222222" fill-rule="evenodd">
    <path d="M52.6 145.4c10.8-22.9 35.4-40.7 62.5-36.6 8.1-9.6 27.9-33.8 52.8-31.8-6.3 11.8-12.8 20.7-17.9 29.6 7.6 1.2 20.6 4.2 26.7 17.9 6.4 14.4 1.8 30.7-8.8 47.8-11.8 19.6-38.6 36.4-68.9 32.5-25.1-3.3-46.0-18.3-63.3-36.8z"/>
    <path d="M164.2 178.1c9.6-2.4 18.1-7.8 25.4-15.1 6.4-6.4 10.6-13.6 13.0-19.9-10.2 5.8-22.7 10.8-35.8 14.2-12.2 3-25.9 7.1-36.4 12.5 8.6 4.3 20.7 8.0 33.8 8.3z"/>
    <path d="M140.5 86.3c5.4 1.8 10.4 5.6 14.6 10.0-5.1-1.4-9.8-1.8-14.6-1.0 1.6-3.6 1.6-6.6 0-8.9z"/>
    <path d="M148.6 101.4c2.6.8 5.4 2.8 7.8 5.2-2.8-.6-5.6-.6-8.4.0 1.2-1.6 1.6-3 0-5.2z"/>
  </g>
</svg>
